<?xml version="1.0" standalone="no"?>
<!DOCTYPE svg PUBLIC "-//W3C//DTD SVG 20010904//EN"
 "http://www.w3.org/TR/2001/REC-SVG-20010904/DTD/svg10.dtd">
<svg version="1.0" xmlns="http://www.w3.org/2000/svg"
 width="329.000000pt" height="88.000000pt" viewBox="0 0 329.000000 88.000000"
 preserveAspectRatio="xMidYMid meet">

<g transform="translate(0.000000,88.000000) scale(0.100000,-0.100000)"
fill="#000000" stroke="none">
<path d="M30 440 l0 -442 28 6 c15 3 46 8 69 11 l43 7 2 229 3 229 76 -217 76
-218 69 3 c38 2 72 7 77 11 4 4 6 189 5 412 l-3 404 -67 3 -68 3 -2 -245 -3
-245 -86 242 -86 242 -67 3 -66 3 0 -441z"/>
<path d="M610 474 l0 -406 63 6 c34 3 100 8 147 11 47 3 104 8 128 11 l42 5 0
65 0 65 -97 -6 c-54 -3 -108 -8 -120 -11 -23 -4 -23 -3 -23 101 l0 105 90 0
90 0 0 71 0 71 -90 -4 -90 -4 0 93 0 93 120 0 120 0 0 70 0 70 -190 0 -190 0
0 -406z"/>
<path d="M1080 810 l0 -70 70 0 70 0 0 -315 0 -315 70 0 70 0 0 315 0 315 70
0 70 0 0 70 0 70 -210 0 -210 0 0 -70z"/>
<path d="M1590 500 l0 -380 70 0 70 0 0 155 0 155 90 0 90 0 0 65 0 65 -90 0
-90 0 0 90 0 90 120 0 120 0 0 70 0 70 -190 0 -190 0 0 -380z"/>
<path d="M2067 873 c-4 -3 -7 -176 -7 -384 l0 -377 128 -6 c70 -4 153 -9 185
-12 l57 -6 0 65 c0 76 -1 77 -100 77 -37 0 -82 3 -99 6 l-31 7 0 318 0 319
-63 0 c-35 0 -67 -3 -70 -7z"/>
<path d="M2550 480 l0 -400 34 0 c18 0 48 -3 65 -6 l31 -6 0 406 0 406 -65 0
-65 0 0 -400z"/>
<path d="M2810 870 c0 -5 34 -97 76 -205 43 -111 73 -202 70 -213 -3 -10 -42
-101 -85 -202 l-80 -185 37 -7 c20 -4 53 -7 72 -7 l35 -1 44 108 c25 59 47
110 50 114 4 4 29 -50 56 -121 l49 -128 75 -11 c42 -6 76 -10 77 -9 1 1 -38
105 -87 230 l-89 228 86 202 c48 111 88 205 91 210 2 4 -29 7 -70 7 l-75 0
-48 -110 c-26 -60 -50 -110 -54 -110 -3 0 -25 50 -49 110 l-42 110 -70 0 c-38
0 -69 -4 -69 -10z"/>
</g>
</svg>
